ply
format ascii 1.0
comment PCL generated
element vertex 4
property float x
property float y
property float z
element camera 1
property float view_px
property float view_py
property float view_pz
property float x_axisx
property float x_axisy
property float x_axisz
property float y_axisx
property float y_axisy
property float y_axisz
property float z_axisx
property float z_axisy
property float z_axisz
property float focal
property float scalex
property float scaley
property float centerx
property float centery
property int viewportx
property int viewporty
property float k1
property float k2
end_header
0.11118767 0.0082522184 0.62853593
0.11540273 -0.016336434 0.62691373
0.14162426 -0.010328001 0.6039719
0.13999061 -0.01224887 0.62884438
0 0 0 1 0 0 0 1 0 0 0 1 0 0 0 0 0 4 1 0 0
