ply
format ascii 1.0
comment PCL generated
element vertex 4
property float x
property float y
property float z
element camera 1
property float view_px
property float view_py
property float view_pz
property float x_axisx
property float x_axisy
property float x_axisz
property float y_axisx
property float y_axisy
property float y_axisz
property float z_axisx
property float z_axisy
property float z_axisz
property float focal
property float scalex
property float scaley
property float centerx
property float centery
property int viewportx
property int viewporty
property float k1
property float k2
end_header
0.030129034 -0.032555323 0.59576243
0.0052009868 -0.033431426 0.59408176
0.0035891205 -0.035294924 0.61896002
-0.019727062 -0.034307528 0.59240103
0 0 0 1 0 0 0 1 0 0 0 1 0 0 0 0 0 4 1 0 0
